<svg xmlns="http://www.w3.org/2000/svg" id="Layer_1" x="0" y="0" enable-background="new 0 0 64 64" version="1.1" viewBox="0 0 64 64" xml:space="preserve"><path fill="#046fb3" d="M53.19,28.14c-0.37-0.58-1.01-0.92-1.73-0.92l-9.99,0.05v-0.62c0-0.32-0.27-0.58-0.59-0.58H39.7
		c-0.19-0.74-0.48-1.46-0.89-2.13l0.84-0.85c0.21-0.2,0.23-0.55,0.01-0.83l-1.96-1.96c-0.22-0.16-0.51-0.16-0.78,0.05l-0.85,0.84
		c-0.66-0.39-1.38-0.69-2.13-0.87v-1.2c0-0.33-0.26-0.59-0.59-0.59h-2.7c-0.33,0-0.59,0.26-0.59,0.59v1.2
		c-0.75,0.18-1.46,0.48-2.12,0.87l-0.9-0.89c-0.24-0.18-0.57-0.16-0.78,0.05l-1.91,1.91c-0.12,0.12-0.18,0.29-0.17,0.46
		c0.01,0.12,0.09,0.29,0.17,0.37l0.85,0.84c-0.41,0.68-0.7,1.4-0.89,2.14h-1.2c-0.32,0-0.59,0.26-0.59,0.58v0.7h0l-9.98,0.05
		c-0.69,0.01-1.32,0.35-1.69,0.9L6.8,34.32c-0.42,0.61-0.46,1.36-0.12,2.02C7.04,37,7.72,37.4,8.47,37.4h3.93v16.32
		c0,1.6,1.31,2.9,2.9,2.9h34.07c1.6,0,2.89-1.31,2.89-2.9V37.4h3.26c0.73,0,1.38-0.37,1.74-0.98c0.36-0.61,0.36-1.32,0-1.98
		L53.19,28.14z M27.83,50.16c0.19,0.19,0.19,0.5,0,0.69c-0.1,0.1-0.23,0.15-0.35,0.15c-0.13,0-0.25-0.05-0.35-0.15l-4.54-4.53
		c-0.19-0.2-0.19-0.51,0-0.7l4.46-4.46c0.2-0.19,0.51-0.19,0.7,0c0.19,0.19,0.19,0.5,0,0.7l-4.11,4.11L27.83,50.16z M29.93,50.32
		l3.72-8.99c0.1-0.25,0.39-0.37,0.64-0.27c0.25,0.11,0.37,0.39,0.27,0.65l-3.72,8.98C30.75,50.88,30.57,51,30.38,51
		c-0.06,0-0.12-0.01-0.18-0.04C29.95,50.86,29.83,50.57,29.93,50.32z M42.02,46.33l-4.54,4.53c-0.09,0.1-0.22,0.15-0.34,0.15
		c-0.13,0-0.26-0.05-0.35-0.15c-0.19-0.19-0.19-0.5,0-0.69l4.19-4.19l-4.12-4.11c-0.19-0.2-0.19-0.51,0-0.7
		c0.19-0.19,0.51-0.19,0.7,0l4.46,4.46c0.09,0.09,0.14,0.22,0.14,0.35S42.11,46.24,42.02,46.33z M8.1,35.22l4.06-6.04
		c0.08-0.13,0.22-0.2,0.38-0.2l10.47-0.05l28.46-0.14c0.16,0,0.31,0.08,0.39,0.21l4.06,6.24c0.07,0.13,0.07,0.25,0,0.37
		c-0.08,0.13-0.22,0.21-0.38,0.21H8.47c-0.17,0-0.31-0.08-0.4-0.23C8.03,35.51,8,35.37,8.1,35.22z M28.06,27.32
		c0.32-1.89,1.96-3.34,3.94-3.34c1.97,0,3.6,1.43,3.94,3.3L28.06,27.32z"/><path fill="#2d3945" d="M61.69,0H2.32C0.93,0-0.2,1.13-0.2,2.51v58.98c0,1.39,1.13,2.51,2.52,2.51h59.37c1.39,0,2.51-1.13,2.51-2.51
		V2.51C64.2,1.13,63.07,0,61.69,0z M61.69,62.43H2.32c-0.52,0-0.94-0.42-0.94-0.94V12.43h61.24v49.06
		C62.63,62,62.2,62.43,61.69,62.43z M6.26,6.36c0-0.27,0.23-0.49,0.5-0.49h2.9c0.27,0,0.49,0.22,0.49,0.49S9.93,6.85,9.66,6.85h-2.9
		C6.49,6.85,6.26,6.63,6.26,6.36z M11.92,6.36c0-0.27,0.22-0.49,0.49-0.49h2.9c0.28,0,0.5,0.22,0.5,0.49s-0.22,0.49-0.5,0.49h-2.9
		C12.14,6.85,11.92,6.63,11.92,6.36z M17.58,6.36c0-0.27,0.22-0.49,0.49-0.49h2.91c0.27,0,0.49,0.22,0.49,0.49s-0.22,0.49-0.49,0.49
		h-2.91C17.79,6.85,17.58,6.63,17.58,6.36z M29.27,6.36c0-0.27,0.23-0.49,0.5-0.49h27.48c0.27,0,0.49,0.22,0.49,0.49
		s-0.22,0.49-0.49,0.49H29.77C29.5,6.85,29.27,6.63,29.27,6.36z"/></svg>